<svg width="52" height="52" viewBox="0 0 52 52" fill="none" xmlns="http://www.w3.org/2000/svg">
<g id="email 1" clip-path="url(#clip0_59_16698)">
<path id="Vector" d="M0 19.5002L25.038 35.4349C25.324 35.6462 25.662 35.7502 26 35.7502C26.338 35.7502 26.676 35.6462 26.962 35.4349L52 19.5002L26.975 0.325164C26.3965 -0.107086 25.6035 -0.107086 25.025 0.325164L0 19.5002Z" fill="#99CFFD"/>
<path id="Vector_2" d="M42.25 0H9.75C7.95925 0 6.5 1.45925 6.5 3.25V39C6.5 39.897 7.228 40.625 8.125 40.625H43.875C44.772 40.625 45.5 39.897 45.5 39V3.25C45.5 1.45925 44.044 0 42.25 0Z" fill="#EBEEF1"/>
<g id="Group">
<path id="Vector_3" d="M14.625 9.75H37.375C38.272 9.75 39 9.022 39 8.125C39 7.228 38.272 6.5 37.375 6.5H14.625C13.728 6.5 13 7.228 13 8.125C13 9.022 13.728 9.75 14.625 9.75Z" fill="#8F9BA8"/>
<path id="Vector_4" d="M37.375 13H14.625C13.728 13 13 13.728 13 14.625C13 15.522 13.728 16.25 14.625 16.25H37.375C38.272 16.25 39 15.522 39 14.625C39 13.728 38.272 13 37.375 13Z" fill="#8F9BA8"/>
<path id="Vector_5" d="M27.625 19.5H14.625C13.728 19.5 13 20.228 13 21.125C13 22.022 13.728 22.75 14.625 22.75H27.625C28.522 22.75 29.25 22.022 29.25 21.125C29.25 20.228 28.522 19.5 27.625 19.5Z" fill="#8F9BA8"/>
</g>
<path id="Vector_6" d="M26.962 35.4347C26.676 35.646 26.338 35.75 26 35.75C25.662 35.75 25.324 35.646 25.038 35.4347L0 19.5V48.75C0 50.544 1.456 52 3.25 52H48.75C50.544 52 52 50.544 52 48.75V19.5L26.962 35.4347Z" fill="#0874F3"/>
<path id="Vector_7" d="M48.75 52H3.25C1.42675 52 0 50.5732 0 48.75C0 48.2332 0.247 47.7458 0.663 47.4403L25.038 31.1903C25.324 30.979 25.662 30.875 26 30.875C26.338 30.875 26.676 30.979 26.962 31.1903L51.337 47.4403C51.753 47.7458 52 48.2332 52 48.75C52 50.5732 50.5732 52 48.75 52Z" fill="#2798FA"/>
</g>
<defs>
<clipPath id="clip0_59_16698">
<rect width="52" height="52" fill="white"/>
</clipPath>
</defs>
</svg>
