<svg width="180" height="180" viewBox="0 0 180 180" fill="none" xmlns="http://www.w3.org/2000/svg">
<g id="Logo">
<path id="path28" d="M23.9939 40.3184C21.5761 37.2587 18.8449 34.4393 15.8413 31.9073C19.0223 34.2542 21.7824 37.1012 23.9939 40.3184Z" stroke="#1D1D1B" stroke-width="1.292" stroke-miterlimit="10"/>
<path id="path56" d="M66.4833 106.552C66.0827 106.965 65.6582 107.363 65.2208 107.744C65.1755 107.788 65.1301 107.827 65.0843 107.867C64.944 107.985 64.8041 108.103 64.6639 108.217C64.536 108.324 64.4081 108.426 64.2802 108.524C64.1519 108.627 64.0202 108.729 63.8882 108.824C63.6283 109.025 63.3601 109.214 63.0874 109.395C62.9517 109.489 62.8151 109.58 62.6794 109.666C62.3617 109.875 62.0395 110.072 61.7135 110.261C61.6104 110.324 61.5076 110.383 61.4041 110.438C61.1153 110.6 60.8228 110.757 60.5253 110.907C60.2695 111.037 60.0096 111.159 59.7501 111.277C59.0982 111.576 58.4298 111.844 57.7491 112.084C57.1178 112.301 56.4738 112.494 55.8178 112.659C55.8099 112.659 55.8013 112.663 55.7934 112.667C54.9683 112.872 54.1262 113.033 53.2643 113.151C52.2246 113.289 51.1598 113.364 50.0788 113.364C48.8576 113.364 47.6615 113.269 46.4939 113.092C46.3248 113.065 46.1597 113.037 45.9943 113.01C45.6725 112.954 45.3552 112.887 45.0371 112.821C42.9866 112.368 41.0396 111.651 39.2445 110.702C39.1046 110.627 38.9685 110.552 38.8319 110.478C17.8895 101.594 3.28874 81.5665 3.28874 58.2825C3.28874 55.8135 3.45335 53.38 3.77145 50.9897C1.31661 58.8416 0.000488281 67.1621 0.000488281 75.778C0.000488281 76.723 0.0169917 77.6642 0.0458721 78.6014C0.0660885 79.1684 0.0912552 79.7354 0.124261 80.3025C0.124261 80.3615 0.128387 80.4206 0.132513 80.4797C0.149016 80.7868 0.169647 81.094 0.190275 81.4011C0.210904 81.7082 0.231119 82.0193 0.255874 82.3265C0.281041 82.6376 0.305797 82.9447 0.334265 83.2519C0.437409 84.4253 0.569845 85.5944 0.722498 86.7529C0.759631 87.0518 0.80089 87.3511 0.845861 87.6503C0.871028 87.8472 0.899908 88.0402 0.932914 88.2331C0.957256 88.4064 0.982425 88.5757 1.01131 88.7446C1.05669 89.0482 1.10578 89.3475 1.15571 89.6507C1.26256 90.2847 1.3785 90.9226 1.50227 91.5527C1.55137 91.8165 1.60542 92.0803 1.65864 92.3442C1.84059 93.238 2.03409 94.128 2.24491 95.014C2.31505 95.3054 2.38519 95.6007 2.45946 95.896C2.65337 96.6836 2.86378 97.4672 3.08203 98.2469C3.15217 98.5068 3.22644 98.7706 3.30483 99.0305C3.36671 99.2431 3.42901 99.4558 3.49502 99.6684C3.65593 100.216 3.82509 100.759 4.00208 101.303C4.07264 101.523 4.14649 101.748 4.22116 101.968C4.27892 102.145 4.33627 102.319 4.39857 102.496C4.67046 103.307 4.95968 104.114 5.26086 104.917C5.364 105.193 5.46715 105.469 5.57442 105.74C5.68169 106.016 5.78855 106.292 5.89582 106.563C6.12273 107.142 6.36244 107.713 6.60133 108.284C6.70488 108.524 6.80803 108.765 6.9153 109.005C7.03082 109.277 7.15047 109.544 7.2697 109.812C7.86794 111.151 8.50372 112.474 9.1721 113.777C9.30413 114.037 9.44028 114.297 9.57643 114.557C9.71258 114.817 9.84873 115.076 9.98901 115.333C10.4016 116.104 10.8307 116.872 11.2721 117.632C11.4165 117.888 11.5651 118.14 11.7136 118.392C12.0354 118.928 12.3568 119.464 12.6873 119.995C12.8234 120.208 12.955 120.421 13.0916 120.633C13.248 120.881 13.4047 121.129 13.5661 121.373C13.7228 121.618 13.8833 121.862 14.0488 122.106C14.3541 122.57 14.6672 123.031 14.9853 123.488C15.0757 123.622 15.1669 123.752 15.2613 123.886C15.3525 124.016 15.4429 124.146 15.5382 124.279C16.5527 125.713 17.6093 127.115 18.715 128.481C30.8242 143.555 48.0077 154.722 67.8283 159.656C75.1681 161.483 82.8705 162.456 90.8127 162.456C128.328 162.456 160.535 140.743 174.381 109.765C175.944 106.268 177.277 102.649 178.353 98.932C179.247 95.3825 179.784 91.7062 179.944 87.9354C179.945 87.9401 179.946 87.9449 179.946 87.9496C179.963 87.6031 179.975 87.2566 179.984 86.91C179.987 86.7761 179.992 86.6462 179.992 86.5119C179.996 86.1973 180 85.8862 180 85.5712C180 85.1892 179.996 84.8073 179.987 84.4292C179.987 84.3859 179.987 84.3426 179.984 84.2993C179.975 83.9331 179.967 83.5708 179.951 83.2125C179.938 82.9014 179.921 82.5864 179.901 82.2753C179.889 82.0745 179.876 81.8776 179.859 81.6768C179.814 80.9679 179.748 80.2591 179.67 79.5582C179.641 79.2861 179.612 79.0188 179.575 78.747C179.443 77.6878 179.282 76.6364 179.088 75.5968C179.055 75.4157 179.022 75.2306 178.985 75.0495C178.964 74.9314 178.939 74.8128 178.915 74.6951C178.878 74.4982 178.836 74.3013 178.791 74.1044C178.733 73.8288 178.675 73.5571 178.609 73.2854C178.568 73.0924 178.523 72.8995 178.474 72.7065C178.395 72.3679 178.309 72.0332 178.222 71.6985C178.139 71.372 178.048 71.0527 177.962 70.7298C177.958 70.7258 177.958 70.7179 177.954 70.714C177.871 70.4147 177.784 70.1194 177.694 69.8241C177.598 69.4933 177.495 69.1665 177.392 68.8396C177.314 68.6034 177.235 68.3667 177.157 68.1308C176.947 67.5047 176.728 66.8822 176.493 66.2683C176.406 66.0277 176.316 65.7918 176.22 65.5555C175.627 64.0395 174.97 62.5585 174.245 61.1098C174.125 60.8657 174.001 60.6215 173.877 60.3774C173.658 59.9521 173.436 59.5308 173.2 59.1133C173.077 58.885 172.953 58.6605 172.825 58.4361C172.763 58.3297 172.701 58.2195 172.64 58.1092C172.487 57.8493 172.338 57.593 172.185 57.3374C171.992 57.0145 171.798 56.6956 171.6 56.3805C171.208 55.7466 170.799 55.1244 170.379 54.5062C170.029 53.9931 169.669 53.4875 169.303 52.9862C169.127 52.7456 168.947 52.5093 168.768 52.2715C168.647 52.1112 168.53 51.9482 168.407 51.7891C168.221 51.545 168.031 51.3048 167.841 51.0646C167.659 50.8401 167.478 50.6157 167.301 50.3912C167.094 50.1392 166.884 49.8911 166.674 49.643C166.673 49.6422 166.672 49.6418 166.671 49.6422C166.024 49.6466 76.0514 97.4231 66.4833 106.552Z" fill="url(#paint0_linear_1_83)"/>
<path id="path78" d="M157.665 134.606C159.096 138.39 159.88 142.474 159.88 146.735C159.88 148.892 159.678 151.007 159.29 153.062C165.281 146.735 168.928 138.347 168.928 129.148C168.928 126.479 168.623 123.88 168.036 121.379C165.021 126.105 161.547 130.531 157.665 134.606Z" fill="url(#paint1_linear_1_83)"/>
<path id="path100" d="M130.651 1.49636C134.204 2.05158 136.91 4.99309 136.91 8.53708C136.91 9.08443 136.844 9.61602 136.72 10.1279C138.874 7.35614 140.339 4.07167 140.879 0.500113C140.887 0.472548 140.892 0.441033 140.892 0.413469C140.871 0.409532 140.85 0.405606 140.83 0.401669C139.699 0.137838 138.523 8.58307e-06 137.31 8.58307e-06C134.917 8.58307e-06 132.656 0.539477 130.651 1.49636Z" fill="url(#paint2_linear_1_83)"/>
<path id="path124" d="M136.731 10.0404C135.044 12.2184 132.931 14.0849 130.51 15.5143C128.27 16.8452 125.765 17.81 123.088 18.314C121.817 18.5582 120.509 18.696 119.172 18.7192C126.533 23.9923 131.789 31.8009 133.518 40.7869C137.391 37.081 140.411 32.5648 142.281 27.5284C143.675 23.7954 144.43 19.7749 144.43 15.5891C144.43 10.1629 143.16 5.01621 140.89 0.41296C140.35 3.98451 138.885 7.26821 136.731 10.0404Z" fill="url(#paint3_linear_1_83)"/>
<path id="path148" d="M55.3585 11.5018C50.6316 15.0249 47.0471 19.5364 44.7437 24.55C45.3848 23.9841 46.0998 23.4785 46.8891 23.0473C52.0026 20.2563 58.3777 21.4967 61.9762 25.7278C61.7778 22.3389 60.7752 18.9426 58.8905 15.7979C57.9354 14.2035 56.8103 12.767 55.5396 11.4892L55.4736 11.4172C55.4335 11.4388 55.3915 11.4687 55.3585 11.5018Z" fill="url(#paint4_linear_1_83)"/>
<path id="path174" d="M30.7959 18.7178C24.757 22.0145 19.5515 26.1732 15.2636 30.9458C9.47018 37.3686 5.33243 44.8949 3.03809 52.9047C17.3636 48.0995 32.7685 48.8571 46.1723 54.3774C45.1541 52.6023 44.3227 50.7748 43.6737 48.9126C42.292 44.9965 41.7119 40.9453 41.8675 36.9528C42.0222 32.6441 43.0512 28.398 44.864 24.4654C47.167 19.4518 50.7515 14.9403 55.4784 11.4172C47.0503 12.0602 38.6242 14.4442 30.7959 18.7178Z" fill="url(#paint5_linear_1_83)"/>
<path id="path204" d="M65.1609 107.73C64.917 107.939 64.6736 108.14 64.4224 108.341C60.5437 111.392 55.5726 113.227 50.155 113.227C48.7605 113.227 47.3948 113.105 46.0705 112.873C43.5046 112.42 41.0911 111.554 38.9085 110.341C17.9656 101.457 3.36491 81.4298 3.36491 58.1458C3.36491 55.6769 3.52994 53.2433 3.84721 50.8531C1.39237 58.705 0.0766602 67.0255 0.0766602 75.6413C0.0766602 94.9915 6.71917 112.861 17.9491 127.285C24.014 135.078 31.4161 141.863 39.8323 147.332C48.2117 152.782 57.5942 156.921 67.6611 159.457C70.6436 159.894 73.6967 160.122 76.8075 160.122C89.4576 160.122 101.191 156.377 110.853 149.982C110.858 150.258 110.858 150.534 110.858 150.809C110.858 154.078 110.569 157.279 110.016 160.393C110.008 160.457 109.995 160.516 109.983 160.579C108.721 167.568 106.126 174.125 102.458 180C117.24 177.507 129.023 166.722 132.349 152.853C132.353 152.825 132.361 152.798 132.366 152.77C132.972 150.227 133.289 147.58 133.289 144.863C133.289 139.425 132.015 134.271 129.738 129.66C133.793 122.331 136.227 114.062 136.582 105.281C136.615 104.533 136.631 103.781 136.631 103.025C136.631 95.1805 134.973 87.7066 131.977 80.9061C132.361 79.9729 132.811 79.0672 133.314 78.1969C137.514 70.8963 145.647 65.9505 154.987 65.9505C160.809 65.9505 166.16 67.8721 170.385 71.0853C175.55 75.0152 179.032 80.8864 179.614 87.5413C179.61 75.5468 175.946 63.4461 169.465 53.6332C168.268 51.8218 166.976 50.0892 165.591 48.4511C161.737 44.6511 156.427 42.2097 150.515 41.9538C149.154 42.0916 67.2856 105.907 65.1609 107.73Z" fill="url(#paint6_linear_1_83)"/>
<path id="path230" d="M132.155 80.7868C135.15 87.5873 136.809 95.0612 136.809 102.905C136.809 103.661 136.792 104.413 136.759 105.162C135.521 135.648 109.232 160.003 76.9852 160.003C72.5367 160.003 68.201 159.538 64.0298 158.66C65.2469 159.014 66.4722 159.349 67.71 159.656C75.0497 161.483 82.7526 162.456 90.6947 162.456C128.21 162.456 160.416 140.743 174.263 109.765C175.826 106.268 177.159 102.649 178.236 98.932C178.459 98.0342 178.66 97.1325 178.838 96.2189C179.378 93.5097 179.713 90.7257 179.828 87.8945C179.007 75.5771 168.28 65.8312 155.164 65.8312C144.71 65.8312 135.769 72.0292 132.155 80.7868Z" fill="url(#paint7_linear_1_83)"/>
<path id="path256" d="M110.742 150.018C110.746 150.282 110.746 150.546 110.746 150.809C110.746 154.078 110.457 157.279 109.905 160.393C109.897 160.457 109.884 160.516 109.872 160.579C108.61 167.568 106.014 174.125 102.346 180C117.129 177.507 128.912 166.722 132.237 152.853C132.242 152.825 132.25 152.798 132.254 152.77C132.861 150.227 133.178 147.58 133.178 144.863C133.178 139.512 131.945 134.436 129.733 129.884C125.175 137.96 118.639 144.867 110.742 150.018Z" fill="url(#paint8_linear_1_83)"/>
<path id="path284" d="M153.089 39.8345C151.634 39.8935 147.886 41.5364 146.346 42.1479C130.205 48.5578 67.0485 106.138 65.0842 107.824C65.0681 107.836 65.0553 107.851 65.0392 107.859C61.0698 111.257 55.8264 113.325 50.0787 113.325C48.6842 113.325 47.319 113.203 45.9942 112.966C43.4284 112.517 41.0148 111.651 38.8319 110.434C17.8894 101.551 3.28866 81.5271 3.28866 58.2431C3.28866 55.7702 3.45328 53.3363 3.77137 50.9465C1.31653 58.7984 0 67.1189 0 75.7347C0 95.5653 6.97257 113.829 18.7104 128.438C27.705 131.576 37.3717 133.376 47.4465 133.6C48.1602 133.616 48.8785 133.624 49.5964 133.624C86.7243 133.624 118.604 112.179 132.372 81.5586C132.36 81.5232 132.343 81.4878 132.327 81.4523C132.627 80.7199 132.966 80.0072 133.345 79.3141C133.477 79.0739 133.61 78.8337 133.75 78.5978C137.974 71.3756 146.061 66.4967 155.336 66.4967C161.042 66.4967 166.298 68.3435 170.481 71.4425C175.738 75.3413 179.307 81.22 179.946 87.9063C179.984 87.1188 180 86.3273 180 85.5279C180 72.8838 175.696 61.2039 168.406 51.7454C167.659 50.7732 166.88 49.8242 166.071 48.9028C162.139 44.8717 158.111 39.8286 153.36 39.829C153.27 39.829 153.18 39.8309 153.089 39.8345Z" fill="url(#paint9_linear_1_83)"/>
</g>
<defs>
<linearGradient id="paint0_linear_1_83" x1="0.000340578" y1="106.049" x2="180" y2="106.049" gradientUnits="userSpaceOnUse">
<stop stop-color="#4753BE"/>
<stop offset="0.1" stop-color="#4753BE"/>
<stop offset="0.167254" stop-color="#4753BE"/>
<stop offset="0.332432" stop-color="#4D88FF"/>
<stop offset="0.708792" stop-color="#4F96FB"/>
<stop offset="1" stop-color="#5EECE6"/>
</linearGradient>
<linearGradient id="paint1_linear_1_83" x1="163.542" y1="136.312" x2="165.186" y2="146.949" gradientUnits="userSpaceOnUse">
<stop stop-color="#4753BE"/>
<stop offset="0.220279" stop-color="#4753BE"/>
<stop offset="1" stop-color="#4D88FF"/>
</linearGradient>
<linearGradient id="paint2_linear_1_83" x1="130.651" y1="5.06397" x2="140.891" y2="5.06397" gradientUnits="userSpaceOnUse">
<stop stop-color="#4DB4FF"/>
<stop offset="0.0567568" stop-color="#4DB4FF"/>
<stop offset="1" stop-color="#4753BE"/>
</linearGradient>
<linearGradient id="paint3_linear_1_83" x1="119.172" y1="20.5998" x2="144.43" y2="20.5998" gradientUnits="userSpaceOnUse">
<stop stop-color="#4D88FF"/>
<stop offset="0.154054" stop-color="#4D88FF"/>
<stop offset="0.711782" stop-color="#4D88FF"/>
<stop offset="1" stop-color="#5DD0E8"/>
</linearGradient>
<linearGradient id="paint4_linear_1_83" x1="56.8294" y1="28.5375" x2="49.3177" y2="14.7777" gradientUnits="userSpaceOnUse">
<stop stop-color="#4DB4FF"/>
<stop offset="0.00810811" stop-color="#4DB4FF"/>
<stop offset="0.679903" stop-color="#4753BE"/>
<stop offset="1" stop-color="#4753BE"/>
</linearGradient>
<linearGradient id="paint5_linear_1_83" x1="3.03799" y1="32.8973" x2="55.4785" y2="32.8973" gradientUnits="userSpaceOnUse">
<stop stop-color="#4753BE"/>
<stop offset="0.1" stop-color="#4753BE"/>
<stop offset="0.158378" stop-color="#4753BE"/>
<stop offset="0.716216" stop-color="#4FADFB"/>
<stop offset="1" stop-color="#4FADFB"/>
</linearGradient>
<linearGradient id="paint6_linear_1_83" x1="84.9749" y1="77.121" x2="144.351" y2="179.276" gradientUnits="userSpaceOnUse">
<stop stop-color="#4753BE"/>
<stop offset="0.0567568" stop-color="#4753BE"/>
<stop offset="0.490009" stop-color="#4D88FF"/>
<stop offset="0.559459" stop-color="#4D88FF"/>
<stop offset="0.591969" stop-color="#4D88FF"/>
<stop offset="0.878378" stop-color="#5EECE6"/>
<stop offset="1" stop-color="#5EECE6"/>
</linearGradient>
<linearGradient id="paint7_linear_1_83" x1="63.3979" y1="132.972" x2="169.951" y2="98.828" gradientUnits="userSpaceOnUse">
<stop stop-color="#4753BE"/>
<stop offset="0.1" stop-color="#4753BE"/>
<stop offset="0.24018" stop-color="#4753BE"/>
<stop offset="0.584468" stop-color="#4F96FB"/>
<stop offset="1" stop-color="#5EECE6"/>
</linearGradient>
<linearGradient id="paint8_linear_1_83" x1="115.056" y1="153.4" x2="126.673" y2="173.387" gradientUnits="userSpaceOnUse">
<stop stop-color="#4D88FF"/>
<stop offset="0.116216" stop-color="#4D88FF"/>
<stop offset="0.380588" stop-color="#4D88FF"/>
<stop offset="0.878378" stop-color="#5EECE6"/>
<stop offset="1" stop-color="#5EECE6"/>
</linearGradient>
<linearGradient id="paint9_linear_1_83" x1="-11.5472" y1="99.8987" x2="177.065" y2="62.7776" gradientUnits="userSpaceOnUse">
<stop stop-color="#4753BE"/>
<stop offset="0.1" stop-color="#4753BE"/>
<stop offset="0.180716" stop-color="#4753BE"/>
<stop offset="0.378957" stop-color="#4D88FF"/>
<stop offset="0.708792" stop-color="#4F96FB"/>
<stop offset="1" stop-color="#5EECE6"/>
</linearGradient>
</defs>
</svg>
