<svg width="82" height="88" viewBox="0 0 82 88" fill="none" xmlns="http://www.w3.org/2000/svg">
<g id="Group">
<g id="Group_2">
<path id="Vector" d="M56.6779 60.3967L53.0362 52.587C52.8346 52.1546 53.0216 51.6405 53.4542 51.4387L67.0243 45.111C67.697 44.7973 68.4261 45.4219 68.2193 46.1348L67.0475 50.1739C66.9258 50.5935 67.1332 51.0383 67.5329 51.2148L71.3803 52.9132C72.0594 53.213 72.0692 54.1731 71.3964 54.4868L57.8264 60.8145C57.3936 61.0163 56.8795 60.8291 56.6779 60.3967Z" fill="#2099FF"/>
<path id="Vector_2" d="M57.8262 60.815L71.3968 54.487C72.0684 54.1724 72.0592 53.2127 71.379 52.9138L68.0533 51.4458L56.0641 57.0364C55.6322 57.2378 55.1175 57.0505 54.916 56.6185L56.6781 60.3972C56.8795 60.8291 57.3943 61.0165 57.8262 60.815Z" fill="#0087FA"/>
<path id="Vector_3" d="M61.1219 52.6175L57.4802 44.8077C57.2786 44.3753 56.7645 44.1881 56.3319 44.3897L38.379 52.7612C37.9466 52.9628 37.7594 53.4769 37.961 53.9095L41.6027 61.7192C41.8043 62.1516 42.3184 62.3388 42.751 62.1372L60.7039 53.7657C61.1365 53.564 61.3235 53.05 61.1219 52.6175Z" fill="#65B8FF"/>
<path id="Vector_4" d="M42.7519 62.1376L60.7036 53.7652C61.1371 53.5645 61.3244 53.0497 61.1214 52.6171L59.1932 48.4819C59.3961 48.9144 59.2088 49.4291 58.7753 49.6301L40.822 58.0017C40.39 58.2032 39.877 58.0164 39.6738 57.5839L41.6021 61.7191C41.8052 62.1517 42.3185 62.3385 42.7519 62.1376Z" fill="#3FA7FF"/>
</g>
<g id="Group_3">
<g id="Group_4">
<path id="Vector_5" d="M0.812588 85.5824L9.17826 66.1963V85.2232L3.08374 87.8535C1.64807 88.4726 0.193323 87.0179 0.812588 85.5824Z" fill="#FFD597"/>
<path id="Vector_6" d="M19.9247 41.291L28.9426 50.309V76.695L16.2773 82.16V49.7438L19.9247 41.291Z" fill="#FFD597"/>
<path id="Vector_7" d="M47.3748 68.7412L36.0352 73.6338V57.4014L47.3748 68.7412Z" fill="#FFD597"/>
</g>
<path id="Vector_8" d="M2.74697 81.0978L9.17819 78.3228V85.2232L3.08367 87.8536C1.64817 88.4728 0.193424 87.0181 0.812518 85.5826L2.74697 81.0978Z" fill="#FCC16D"/>
<path id="Vector_9" d="M16.2773 75.2594L28.9426 69.7944V76.6949L16.2773 82.1598V75.2594Z" fill="#FCC16D"/>
<path id="Vector_10" d="M47.3748 68.7414L36.0352 73.634V66.7336L42.5535 63.9219L47.3748 68.7414Z" fill="#FCC16D"/>
<g id="Group_5">
<path id="Vector_11" d="M17.6041 46.6733V81.5875L7.67969 85.8713V69.6706L17.6041 46.6733Z" fill="#FFF2E3"/>
<path id="Vector_12" d="M17.6038 74.6875V81.5879L7.67871 85.8719V78.9698L17.6038 74.6875Z" fill="#FEE7C9"/>
<path id="Vector_13" d="M37.45 58.8165V73.023L27.5273 77.3051V48.8921L37.45 58.8165Z" fill="#FFF2E3"/>
<path id="Vector_14" d="M37.4506 66.1245V73.0232L27.5273 77.3055V70.4051L37.4506 66.1245Z" fill="#FEE7C9"/>
</g>
<path id="Vector_15" d="M44.0717 69.4575L19.2086 44.5944C17.8589 43.2447 17.8589 41.0564 19.2086 39.7066L20.3072 38.608C21.6569 37.2583 23.8453 37.2583 25.195 38.608L50.0581 63.4711C51.4078 64.8208 51.4078 67.0091 50.0581 68.3589L48.9595 69.4575C47.6097 70.8072 45.4214 70.8072 44.0717 69.4575Z" fill="#FB4A59"/>
<path id="Vector_16" d="M50.0575 68.3592L48.9585 69.4582C47.6102 70.8065 45.421 70.8065 44.0709 69.4582L40.373 65.7603C41.7388 66.7039 43.6244 66.5679 44.8385 65.3538L45.9531 64.2392C47.1654 63.0269 47.3049 61.1483 46.3701 59.7842L50.0575 63.4716C51.4076 64.8199 51.4076 67.0091 50.0575 68.3592Z" fill="#F82F40"/>
</g>
<g id="Group_6">
<path id="Vector_17" d="M40.0202 18.7883L32.2106 15.1466C31.7781 14.945 31.2641 15.132 31.0623 15.5646L24.7345 29.1346C24.4208 29.8073 25.0454 30.5364 25.7584 30.3297L29.7974 29.1578C30.217 29.0361 30.6618 29.2436 30.8383 29.6432L32.5368 33.4906C32.8365 34.1697 33.7966 34.1795 34.1103 33.5068L40.438 19.9367C40.6398 19.5041 40.4527 18.99 40.0202 18.7883Z" fill="#3EAA6C"/>
<path id="Vector_18" d="M40.4386 19.9366L34.1105 33.5071C33.796 34.1788 32.8362 34.1695 32.5373 33.4894L31.0693 30.1636L36.6599 18.1745C36.8614 17.7426 36.674 17.2278 36.2421 17.0264L40.0208 18.7884C40.4527 18.9899 40.64 19.5046 40.4386 19.9366Z" fill="#1C8539"/>
<path id="Vector_19" d="M32.2414 23.2318L24.4317 19.5901C23.9993 19.3885 23.8121 18.8745 24.0137 18.4418L30.1237 5.33896C30.3253 4.90652 30.8394 4.71935 31.272 4.92096L39.0817 8.56264C39.5141 8.76425 39.7013 9.27833 39.4997 9.71094L33.3897 22.8138C33.1879 23.2464 32.6738 23.4334 32.2414 23.2318Z" fill="#5EC289"/>
<path id="Vector_20" d="M39.4996 9.71124L33.3887 22.8129C33.188 23.2464 32.6732 23.4339 32.2406 23.2308L28.1055 21.3025C28.5379 21.5055 29.0527 21.3181 29.2536 20.8847L35.3637 7.78143C35.5652 7.3495 35.3784 6.83646 34.9459 6.6333L39.0811 8.56157C39.5137 8.76455 39.7003 9.27777 39.4996 9.71124Z" fill="#4BB679"/>
</g>
<g id="Group_7">
<g id="Group_8">
<path id="Vector_21" d="M76.4954 36.0424C76.1608 36.0424 75.8258 35.9147 75.5702 35.6593C73.0347 33.1238 69.6634 31.7273 66.0775 31.7273C62.4917 31.7273 59.1204 33.1238 56.5849 35.6593C56.0739 36.1701 55.2457 36.1701 54.7347 35.6593C54.2239 35.1485 54.2239 34.32 54.7347 33.8092C57.7645 30.7794 61.7927 29.1108 66.0775 29.1108C70.3624 29.1108 74.3906 30.7794 77.4204 33.8092C77.9312 34.32 77.9312 35.1485 77.4204 35.6593C77.165 35.9147 76.8302 36.0424 76.4954 36.0424Z" fill="#FB4A59"/>
</g>
<g id="Group_9">
<path id="Vector_22" d="M80.0257 52.2889C79.3031 52.2889 78.7173 51.7031 78.7173 50.9807C78.7173 43.5782 72.695 37.5559 65.2925 37.5559C64.57 37.5559 63.9844 36.9702 63.9844 36.2478C63.9844 35.5252 64.57 34.9395 65.2925 34.9395C74.1377 34.9395 81.3338 42.1355 81.3338 50.9807C81.334 51.7031 80.7484 52.2889 80.0257 52.2889Z" fill="#3EAA6C"/>
</g>
</g>
<g id="Group_10">
<g id="Group_11">
<path id="Vector_23" d="M44.604 31.3333C43.8815 31.3333 43.2959 30.7475 43.2959 30.0252C43.2959 29.3026 43.8815 28.717 44.604 28.717C52.0065 28.717 58.0289 22.6947 58.0289 15.2922C58.0289 14.5696 58.6144 13.9839 59.337 13.9839C60.0596 13.9839 60.6453 14.5696 60.6453 15.2922C60.6453 24.1372 53.4492 31.3333 44.604 31.3333Z" fill="#3FA7FF"/>
</g>
<g id="Group_12">
<path id="Vector_24" d="M50.3454 23.4518C50.0108 23.4518 49.6758 23.3241 49.4202 23.0687C48.9094 22.5579 48.9094 21.7295 49.4202 21.2187C51.9559 18.683 53.3524 15.3117 53.3524 11.7258C53.3524 8.14 51.9559 4.76867 49.4202 2.23317C48.9094 1.72236 48.9094 0.893922 49.4202 0.383109C49.9312 -0.127703 50.7595 -0.127703 51.2705 0.383109C54.3001 3.41292 55.9688 7.44116 55.9688 11.726C55.9688 16.0108 54.3001 20.0391 51.2705 23.0689C51.0149 23.3241 50.6801 23.4518 50.3454 23.4518Z" fill="#FFD597"/>
</g>
</g>
<g id="Group_13">
<g id="XMLID_397_">
<path id="Vector_25" d="M69.6376 19.8069C68.9405 19.8069 68.3611 19.2569 68.3315 18.5538L68.3293 18.5012C68.2989 17.7793 68.8594 17.1695 69.5812 17.1391C70.2997 17.1058 70.9129 17.6692 70.9434 18.391L70.9456 18.4436C70.976 19.1655 70.4155 19.7753 69.6936 19.8057C69.6749 19.8066 69.6562 19.8069 69.6376 19.8069Z" fill="#FFD597"/>
</g>
<g id="XMLID_394_">
<path id="Vector_26" d="M69.622 25.4893C68.9249 25.4893 68.3455 24.9393 68.3159 24.2361L68.3137 24.1835C68.2833 23.4616 68.8437 22.8518 69.5656 22.8214C70.2861 22.7858 70.8973 23.3515 70.9277 24.0734L70.93 24.1259C70.9604 24.8478 70.3999 25.4576 69.678 25.4881C69.6593 25.4889 69.6406 25.4893 69.622 25.4893Z" fill="#FFD597"/>
</g>
<g id="XMLID_389_">
<path id="Vector_27" d="M72.3239 22.6305C71.6304 22.6305 71.0522 22.0857 71.0182 21.3856C70.9833 20.6639 71.54 20.0505 72.2615 20.0156L72.3106 20.0132C73.0392 19.9792 73.6458 20.535 73.6807 21.2565C73.7155 21.9782 73.1588 22.5917 72.4373 22.6266L72.3882 22.629C72.3665 22.63 72.3452 22.6305 72.3239 22.6305Z" fill="#FFD597"/>
</g>
<g id="XMLID_387_">
<path id="Vector_28" d="M66.8835 22.615C66.1899 22.615 65.6118 22.0702 65.5777 21.3701C65.5428 20.6484 66.0995 20.035 66.8211 20.0001L66.8702 19.9977C67.5954 19.9623 68.2053 20.5195 68.2402 21.241C68.2751 21.9627 67.7184 22.5762 66.9969 22.6111L66.9477 22.6135C66.9263 22.6145 66.9048 22.615 66.8835 22.615Z" fill="#FFD597"/>
</g>
</g>
<g id="Group_14">
<g id="XMLID_407_">
<path id="Vector_29" d="M76.9804 10.219C76.2833 10.219 75.7039 9.66904 75.6743 8.9659L75.6721 8.91331C75.6417 8.19143 76.2021 7.58162 76.924 7.5512C77.6473 7.51803 78.2557 8.08126 78.2861 8.80313L78.2883 8.85573C78.3188 9.5776 77.7583 10.1874 77.0364 10.2178C77.0177 10.2187 76.9989 10.219 76.9804 10.219Z" fill="#FB4A59"/>
</g>
<g id="XMLID_404_">
<path id="Vector_30" d="M76.9657 15.9012C76.2686 15.9012 75.6892 15.351 75.6597 14.6478L75.6574 14.5951C75.6272 13.8732 76.1877 13.2634 76.9095 13.2331C76.9281 13.2323 76.9468 13.2319 76.9654 13.2319C77.6625 13.2319 78.2419 13.7821 78.2715 14.4852L78.2737 14.538C78.3039 15.2599 77.7435 15.8697 77.0216 15.9C77.003 15.9008 76.9843 15.9012 76.9657 15.9012Z" fill="#FB4A59"/>
</g>
<g id="XMLID_402_">
<path id="Vector_31" d="M79.6667 13.0427C78.973 13.0427 78.3948 12.4979 78.3609 11.7976C78.326 11.0759 78.8829 10.4627 79.6046 10.4278L79.6539 10.4254C80.3753 10.3903 80.9889 10.9474 81.0236 11.6689C81.0585 12.3906 80.5016 13.0039 79.7799 13.0387L79.7306 13.0412C79.7093 13.0422 79.688 13.0427 79.6667 13.0427Z" fill="#FB4A59"/>
</g>
<g id="XMLID_400_">
<path id="Vector_32" d="M74.2272 13.027C73.5337 13.027 72.9555 12.4821 72.9215 11.7821C72.8866 11.0604 73.4433 10.447 74.1648 10.4121L74.214 10.4097C74.9376 10.3758 75.5491 10.9315 75.584 11.653C75.6189 12.3747 75.0622 12.9881 74.3406 13.023L74.2915 13.0254C74.27 13.0265 74.2485 13.027 74.2272 13.027Z" fill="#FB4A59"/>
</g>
</g>
<g id="Group_15">
<g id="XMLID_385_">
<path id="Vector_33" d="M40.5274 37.6506C39.832 37.6506 39.2533 37.1032 39.2215 36.4014L39.2191 36.3486C39.1865 35.6269 39.7451 35.0152 40.4669 34.9828C41.1885 34.9508 41.8004 35.5087 41.8328 36.2306L41.8352 36.2833C41.8679 37.005 41.3093 37.6167 40.5874 37.6492C40.5673 37.6501 40.5474 37.6506 40.5274 37.6506Z" fill="#4BB679"/>
</g>
<g id="XMLID_384_">
<path id="Vector_34" d="M40.5128 43.3326C39.8174 43.3326 39.2387 42.7851 39.2069 42.0835L39.2045 42.031C39.1718 41.3093 39.7303 40.6976 40.4521 40.6649C41.1829 40.6328 41.7857 41.1908 41.8182 41.9125L41.8206 41.9651C41.8533 42.6868 41.2948 43.2985 40.573 43.3312C40.5528 43.3322 40.5327 43.3326 40.5128 43.3326Z" fill="#4BB679"/>
</g>
<g id="XMLID_383_">
<path id="Vector_35" d="M43.2145 40.4744C42.5218 40.4744 41.944 39.9308 41.9089 39.2316C41.8728 38.5101 42.4285 37.8958 43.15 37.8597L43.1993 37.8573C43.925 37.8195 44.5351 38.377 44.5712 39.0986C44.6073 39.8201 44.0517 40.4344 43.3301 40.4705L43.2808 40.4729C43.2586 40.4739 43.2365 40.4744 43.2145 40.4744Z" fill="#4BB679"/>
</g>
<g id="XMLID_382_">
<path id="Vector_36" d="M37.7741 40.4587C37.0804 40.4587 36.5022 39.9138 36.4684 39.2136C36.4335 38.4919 36.9903 37.8787 37.712 37.8438L37.7614 37.8414C38.4817 37.807 39.0963 38.3633 39.131 39.0849C39.1659 39.8066 38.609 40.4198 37.8873 40.4547L37.838 40.4571C37.8167 40.4581 37.7954 40.4587 37.7741 40.4587Z" fill="#4BB679"/>
</g>
</g>
<g id="Group_16">
<path id="Vector_37" d="M16.269 29.4265C16.0839 29.4265 15.8958 29.387 15.7169 29.3037C15.0621 28.9982 14.7788 28.22 15.0842 27.5651L16.1523 25.2746L15.0942 24.7813C14.7797 24.6347 14.5365 24.3691 14.4177 24.0431C14.2991 23.717 14.3148 23.3571 14.4615 23.0428L15.6599 20.4729C15.9653 19.818 16.7439 19.535 17.3984 19.84C18.0532 20.1455 18.3365 20.9237 18.031 21.5786L17.3857 22.9628L18.4437 23.4561C18.7583 23.6027 19.0015 23.8683 19.1202 24.1943C19.2388 24.5204 19.2232 24.8803 19.0764 25.1946L17.4554 28.6708C17.2334 29.1469 16.7616 29.4265 16.269 29.4265Z" fill="#FB4A59"/>
</g>
<g id="Group_17">
<path id="Vector_38" d="M73.9959 63.9487C73.5032 63.9487 73.0314 63.669 72.8095 63.1929C72.504 62.5381 72.7873 61.7598 73.4421 61.4544L75.7327 60.3862L75.2394 59.3283C74.9342 58.6735 75.2174 57.8952 75.8723 57.5898L78.442 56.3915C79.0968 56.0861 79.8751 56.3693 80.1805 57.0243C80.4859 57.6792 80.2027 58.4574 79.5478 58.7629L78.1635 59.4082L78.6568 60.4661C78.9621 61.121 78.6788 61.8992 78.024 62.2046L74.5478 63.8256C74.3692 63.9091 74.181 63.9485 73.9959 63.9487Z" fill="#FFD597"/>
</g>
<g id="Group_18">
<path id="Vector_39" d="M63.945 12.1723C63.6104 12.1723 63.2754 12.0446 63.02 11.7892C62.509 11.2784 62.509 10.4501 63.0198 9.9391L64.8068 8.15212L63.9813 7.32677C63.736 7.08151 63.5982 6.74876 63.5982 6.40174C63.5982 6.05473 63.736 5.72198 63.9814 5.47671L65.9866 3.47162C66.4972 2.96063 67.3256 2.96063 67.8366 3.47162C68.3474 3.9826 68.3474 4.81087 67.8364 5.32168L66.7565 6.40157L67.5821 7.22691C68.0929 7.73773 68.0929 8.56616 67.5821 9.07698L64.87 11.789C64.6146 12.0446 64.2798 12.1723 63.945 12.1723Z" fill="#4BB679"/>
</g>
</g>
</svg>
