<svg width="20" height="20" viewBox="0 0 20 20" fill="none" xmlns="http://www.w3.org/2000/svg">
<g id="vuesax/outline/row-horizontal">
<g id="row-horizontal">
<path id="Vector" d="M6.8915 18.9584H3.52484C1.84984 18.9584 1.0415 18.1834 1.0415 16.5834V3.41675C1.0415 1.81675 1.85817 1.04175 3.52484 1.04175H6.8915C8.5665 1.04175 9.37484 1.81675 9.37484 3.41675V16.5834C9.37484 18.1834 8.55817 18.9584 6.8915 18.9584ZM3.52484 2.29175C2.4665 2.29175 2.2915 2.57508 2.2915 3.41675V16.5834C2.2915 17.4251 2.4665 17.7084 3.52484 17.7084H6.8915C7.94984 17.7084 8.12484 17.4251 8.12484 16.5834V3.41675C8.12484 2.57508 7.94984 2.29175 6.8915 2.29175H3.52484Z" fill="white"/>
<path id="Vector_2" d="M16.475 18.9584H13.1083C11.4333 18.9584 10.625 18.1834 10.625 16.5834V3.41675C10.625 1.81675 11.4417 1.04175 13.1083 1.04175H16.475C18.15 1.04175 18.9583 1.81675 18.9583 3.41675V16.5834C18.9583 18.1834 18.1417 18.9584 16.475 18.9584ZM13.1083 2.29175C12.05 2.29175 11.875 2.57508 11.875 3.41675V16.5834C11.875 17.4251 12.05 17.7084 13.1083 17.7084H16.475C17.5333 17.7084 17.7083 17.4251 17.7083 16.5834V3.41675C17.7083 2.57508 17.5333 2.29175 16.475 2.29175H13.1083Z" fill="white"/>
</g>
</g>
</svg>
