<svg width="20" height="20" viewBox="0 0 20 20" fill="#2e324e" xmlns="http://www.w3.org/2000/svg">
<g id="UI icon/moon/light">
<path id="Subtract (Stroke)" fill-rule="evenodd" clip-rule="evenodd" d="M6.72139 5.02125C5.17765 6.07218 4.16667 7.84291 4.16667 9.84714C4.16667 13.0688 6.77834 15.6805 10 15.6805C12.0042 15.6805 13.775 14.6695 14.8259 13.1257C10.5681 12.6603 7.18684 9.27902 6.72139 5.02125ZM15.8333 11.5138C16.555 11.5138 17.1765 12.1499 16.8909 12.8126C15.7415 15.4799 13.0888 17.3471 10 17.3471C5.85786 17.3471 2.5 13.9893 2.5 9.84714C2.5 6.75832 4.36723 4.10563 7.0345 2.95623C7.69728 2.67062 8.33333 3.29211 8.33333 4.01381C8.33333 8.15595 11.6912 11.5138 15.8333 11.5138Z" />
</g>
</svg>
