<svg width="11" height="16" viewBox="0 0 11 16" fill="#475569" xmlns="http://www.w3.org/2000/svg">
<path id="Union" fill-rule="evenodd" clip-rule="evenodd" d="M2 4C0.89543 4 0 3.10457 0 2C0 0.89543 0.895431 0 2 0C3.10457 0 4 0.895431 4 2C4 3.10457 3.10457 4 2 4ZM0 14C0 15.1046 0.89543 16 2 16C3.10457 16 4 15.1046 4 14C4 12.8954 3.10457 12 2 12C0.895431 12 0 12.8954 0 14ZM7 14C7 15.1046 7.89543 16 9 16C10.1046 16 11 15.1046 11 14C11 12.8954 10.1046 12 9 12C7.89543 12 7 12.8954 7 14ZM7 2C7 3.10457 7.89543 4 9 4C10.1046 4 11 3.10457 11 2C11 0.895431 10.1046 0 9 0C7.89543 0 7 0.895431 7 2ZM2 10C0.89543 10 0 9.10457 0 8C0 6.89543 0.895431 6 2 6C3.10457 6 4 6.89543 4 8C4 9.10457 3.10457 10 2 10ZM7 8C7 9.10457 7.89543 10 9 10C10.1046 10 11 9.10457 11 8C11 6.89543 10.1046 6 9 6C7.89543 6 7 6.89543 7 8Z"/>
</svg>
