<svg width="14" height="14" viewBox="0 0 14 14" fill="none" xmlns="http://www.w3.org/2000/svg">
<g id="Email" opacity="0.6">
<path id="Vector" d="M7.01269 7.73235C7.2663 7.73235 7.52627 7.59919 7.7926 7.33289L13.3088 1.87365C13.0722 1.64961 12.6389 1.5376 12.0091 1.5376H1.80073C1.26389 1.5376 0.891907 1.64116 0.684784 1.84829L6.23279 7.33289C6.49488 7.59919 6.75484 7.73235 7.01269 7.73235ZM0.158515 11.4416L4.64131 7.00952L0.145833 2.57745C0.048611 2.75922 0 3.06568 0 3.49684V10.4969C0 10.9449 0.0528382 11.2598 0.158515 11.4416ZM1.99094 12.4624H12.1993C12.7277 12.4624 13.0975 12.361 13.3088 12.1581L8.7373 7.6309L8.31884 8.05572C7.89192 8.46151 7.45654 8.66441 7.01269 8.66441C6.56462 8.66441 6.12922 8.46151 5.70652 8.05572L5.28171 7.6309L0.722825 12.1517C0.963767 12.3589 1.38647 12.4624 1.99094 12.4624ZM13.8478 11.4353C13.9493 11.2493 14 10.9365 14 10.4969V3.49684C14 3.0699 13.9535 2.76978 13.8605 2.59647L9.37774 7.00952L13.8478 11.4353Z" fill="white"/>
</g>
</svg>
