<svg width="16" height="16" viewBox="0 0 16 16" fill="none" xmlns="http://www.w3.org/2000/svg">
<path d="M2.23324 1.33325H8.16658C8.65992 1.33325 9.06657 1.73992 9.06657 2.23326V3.21991C9.06657 3.57991 8.83991 4.02659 8.61991 4.25326L6.6866 5.95992C6.41994 6.18659 6.23991 6.63325 6.23991 6.99325V8.9266C6.23991 9.19326 6.05992 9.55326 5.83325 9.69326L5.20658 10.0999C4.61992 10.4599 3.81323 10.0533 3.81323 9.33325V6.95325C3.81323 6.63991 3.63325 6.23326 3.45325 6.00659L1.74658 4.20658C1.51991 3.97992 1.33992 3.57991 1.33992 3.30658V2.27325C1.33326 1.73992 1.7399 1.33325 2.23324 1.33325Z" stroke="#E6F3F2" stroke-width="1.3" stroke-miterlimit="10" stroke-linecap="round" stroke-linejoin="round"/>
<path d="M1.3335 8.00008V10.0001C1.3335 13.3334 2.66683 14.6667 6.00016 14.6667H10.0002C13.3335 14.6667 14.6668 13.3334 14.6668 10.0001V6.00008C14.6668 3.92008 14.1468 2.61341 12.9401 1.93341C12.6001 1.74008 11.9202 1.59341 11.3002 1.49341" stroke="#E6F3F2" stroke-width="1.3" stroke-linecap="round" stroke-linejoin="round"/>
<path d="M8.6665 8.66675H11.9998" stroke="#E6F3F2" stroke-width="1.3" stroke-linecap="round" stroke-linejoin="round"/>
<path d="M7.3335 11.3333H12.0002" stroke="#E6F3F2" stroke-width="1.3" stroke-linecap="round" stroke-linejoin="round"/>
</svg>
