<svg width="20" height="20" viewBox="0 0 20 20" fill="#E6F3F2" xmlns="http://www.w3.org/2000/svg">
<g id="vuesax/outline/layer">
<g id="layer">
<path id="Vector" d="M9.82516 9.89992C9.37516 9.89992 8.91683 9.81659 8.5585 9.65825L3.64183 7.47492C2.39183 6.91659 2.2085 6.16658 2.2085 5.75825C2.2085 5.34992 2.39183 4.59992 3.64183 4.04159L8.5585 1.85825C9.2835 1.53325 10.3752 1.53325 11.1002 1.85825L16.0252 4.04159C17.2668 4.59159 17.4585 5.34992 17.4585 5.75825C17.4585 6.16658 17.2752 6.91659 16.0252 7.47492L11.1002 9.65825C10.7335 9.82492 10.2835 9.89992 9.82516 9.89992ZM9.82516 2.86659C9.54183 2.86659 9.26683 2.90825 9.06683 2.99992L4.15016 5.18325C3.64183 5.41658 3.4585 5.64992 3.4585 5.75825C3.4585 5.86659 3.64183 6.10825 4.14183 6.33325L9.0585 8.51659C9.45849 8.69159 10.1835 8.69159 10.5835 8.51659L15.5085 6.33325C16.0168 6.10825 16.2002 5.86659 16.2002 5.75825C16.2002 5.64992 16.0168 5.40825 15.5085 5.18325L10.5918 2.99992C10.3918 2.91659 10.1085 2.86659 9.82516 2.86659Z" />
<path id="Vector_2" d="M10 14.2417C9.68333 14.2417 9.36667 14.1751 9.06667 14.0417L3.40833 11.5251C2.55 11.1501 1.875 10.1084 1.875 9.16675C1.875 8.82508 2.15833 8.54175 2.5 8.54175C2.84167 8.54175 3.125 8.82508 3.125 9.16675C3.125 9.62508 3.5 10.2001 3.91667 10.3917L9.575 12.9084C9.84167 13.0251 10.15 13.0251 10.425 12.9084L16.0833 10.3917C16.5 10.2084 16.875 9.62508 16.875 9.16675C16.875 8.82508 17.1583 8.54175 17.5 8.54175C17.8417 8.54175 18.125 8.82508 18.125 9.16675C18.125 10.1084 17.45 11.1501 16.5917 11.5334L10.9333 14.0501C10.6333 14.1751 10.3167 14.2417 10 14.2417Z" />
<path id="Vector_3" d="M10 18.4083C9.68333 18.4083 9.36667 18.3416 9.06667 18.2083L3.40833 15.6916C2.475 15.275 1.875 14.35 1.875 13.325C1.875 12.9833 2.15833 12.7 2.5 12.7C2.84167 12.7 3.125 12.9916 3.125 13.3333C3.125 13.8583 3.43333 14.3416 3.91667 14.5583L9.575 17.075C9.84167 17.1916 10.15 17.1916 10.425 17.075L16.0833 14.5583C16.5667 14.3416 16.875 13.8666 16.875 13.3333C16.875 12.9916 17.1583 12.7083 17.5 12.7083C17.8417 12.7083 18.125 12.9916 18.125 13.3333C18.125 14.3583 17.525 15.2833 16.5917 15.7L10.9333 18.2166C10.6333 18.3416 10.3167 18.4083 10 18.4083Z" />
</g>
</g>
</svg>
