<svg width="14" height="14" viewBox="0 0 14 14" fill="none" xmlns="http://www.w3.org/2000/svg">
<g id="Password" opacity="0.6" clip-path="url(#clip0_234_52)">
<path id="Vector" d="M3.58434 14.0004H10.416C10.88 14.0004 11.2256 13.882 11.4529 13.6452C11.6801 13.4084 11.7938 13.0388 11.7938 12.5365V7.26933C11.7938 6.77179 11.6801 6.40461 11.4529 6.1678C11.2256 5.931 10.88 5.8126 10.416 5.8126L3.72786 5.82695C3.2686 5.82695 2.90023 5.94416 2.62275 6.17857C2.34528 6.41299 2.20654 6.77658 2.20654 7.26933V12.5365C2.20654 13.0388 2.32136 13.4084 2.55099 13.6452C2.78063 13.882 3.12508 14.0004 3.58434 14.0004ZM3.34753 6.29339H4.50288V3.86071C4.50288 3.25793 4.61769 2.75201 4.84733 2.34298C5.07696 1.93395 5.38194 1.62538 5.76227 1.41727C6.1426 1.20916 6.55522 1.10511 7.00014 1.10511C7.44984 1.10511 7.86366 1.20916 8.24159 1.41727C8.61953 1.62538 8.92332 1.93395 9.15295 2.34298C9.38259 2.75201 9.49741 3.25793 9.49741 3.86071V6.29339H10.6527V4.0114C10.6527 3.33686 10.5523 2.74842 10.3514 2.2461C10.1504 1.74378 9.87772 1.32637 9.53328 0.993882C9.18883 0.661392 8.79774 0.412622 8.36 0.247573C7.92226 0.0825245 7.46898 0 7.00014 0C6.53131 0 6.07921 0.0825245 5.64386 0.247573C5.20852 0.412622 4.81862 0.661392 4.47417 0.993882C4.12972 1.32637 3.85583 1.74378 3.65251 2.2461C3.44919 2.74842 3.34753 3.33686 3.34753 4.0114V6.29339Z" fill="white"/>
</g>
<defs>
<clipPath id="clip0_234_52">
<rect width="14" height="14" fill="white"/>
</clipPath>
</defs>
</svg>
