<svg width="20" height="20" viewBox="0 0 20 20" fill="none" xmlns="http://www.w3.org/2000/svg">
<g id="logout">
<path id="Vector" d="M7.30003 1.44168H7.40836C11.1084 1.44168 12.8917 2.90002 13.2 6.16668C13.2334 6.50835 12.9834 6.81668 12.6334 6.85002C12.3 6.88335 11.9834 6.62502 11.95 6.28335C11.7084 3.66668 10.475 2.69168 7.40003 2.69168H7.29169C3.90003 2.69168 2.70003 3.89168 2.70003 7.28335L2.70003 12.7167C2.70003 16.1084 3.90003 17.3083 7.29169 17.3083H7.40003C10.4917 17.3083 11.725 16.3167 11.95 13.65C11.9917 13.3084 12.2834 13.05 12.6334 13.0833C12.9834 13.1083 13.2334 13.4167 13.2084 13.7583C12.925 17.075 11.1334 18.5583 7.40836 18.5583H7.30003C3.20836 18.5583 1.45836 16.8083 1.45836 12.7167L1.45836 7.28335C1.45836 3.19168 3.20836 1.44168 7.30003 1.44168Z"/>
<path id="Vector_2" d="M7.5 9.375L16.9833 9.375C17.325 9.375 17.6083 9.65833 17.6083 10C17.6083 10.3417 17.325 10.625 16.9833 10.625L7.5 10.625C7.15834 10.625 6.875 10.3417 6.875 10C6.875 9.65833 7.15834 9.375 7.5 9.375Z"/>
<path id="Vector_3" d="M15.125 6.5833C15.2834 6.5833 15.4417 6.64163 15.5667 6.76663L18.3584 9.5583C18.6 9.79997 18.6 10.2 18.3584 10.4416L15.5667 13.2333C15.325 13.475 14.925 13.475 14.6834 13.2333C14.4417 12.9916 14.4417 12.5916 14.6834 12.35L17.0334 9.99997L14.6834 7.64997C14.4417 7.4083 14.4417 7.0083 14.6834 6.76663C14.8 6.64163 14.9667 6.5833 15.125 6.5833Z"/>
</g>
</svg>
