<svg width="16" height="16" viewBox="0 0 16 16" fill="none" xmlns="http://www.w3.org/2000/svg">
<g id="Icon_russia" clip-path="url(#clip0_3_915)">
<path id="Vector" d="M8 16C12.4183 16 16 12.4183 16 8C16 3.58172 12.4183 0 8 0C3.58172 0 0 3.58172 0 8C0 12.4183 3.58172 16 8 16Z" fill="#F3F5FE"/>
<path id="Vector_2" d="M15.5024 10.7825C15.824 9.91582 16 8.97844 16 7.99988C16 7.02132 15.824 6.08394 15.5024 5.21729H0.497594C0.176031 6.08394 0 7.02132 0 7.99988C0 8.97844 0.176031 9.91582 0.497594 10.7825L8 11.4781L15.5024 10.7825Z" fill="#0052B4"/>
<path id="Vector_3" d="M7.99996 16.0001C11.4397 16.0001 14.372 13.8291 15.5024 10.7827H0.497559C1.6279 13.8291 4.56025 16.0001 7.99996 16.0001Z" fill="#D80027"/>
</g>
<defs>
<clipPath id="clip0_3_915">
<rect width="16" height="16" fill="white"/>
</clipPath>
</defs>
</svg>
