<svg width="14" height="14" viewBox="0 0 14 14" fill="none" xmlns="http://www.w3.org/2000/svg">
<path d="M0 5.66244C0 6.44298 0.148073 7.17502 0.444218 7.85856C0.740364 8.54215 1.15115 9.14413 1.67657 9.66447C2.20199 10.1848 2.8098 10.5917 3.50001 10.885C4.19022 11.1782 4.92938 11.3248 5.71751 11.3248C6.33846 11.3248 6.93074 11.2302 7.49435 11.041C8.05801 10.8518 8.57388 10.5917 9.04197 10.2605L12.5671 13.7587C12.653 13.8392 12.7474 13.8995 12.85 13.9397C12.9528 13.9799 13.0614 14 13.1761 14C13.3385 14 13.4818 13.9633 13.6059 13.89C13.7301 13.8167 13.8269 13.7161 13.8961 13.5885C13.9654 13.4607 14 13.3188 14 13.1627C14 13.0492 13.9797 12.9427 13.9391 12.8434C13.8985 12.744 13.84 12.6565 13.7636 12.5809L10.26 9.08973C10.6278 8.61666 10.9156 8.08919 11.1233 7.50732C11.3311 6.92548 11.435 6.31052 11.435 5.66244C11.435 4.8819 11.2869 4.14985 10.9908 3.46629C10.6947 2.78273 10.2839 2.18077 9.75847 1.66042C9.23306 1.14006 8.62524 0.733232 7.935 0.439939C7.2448 0.146646 6.50564 0 5.71751 0C4.92938 0 4.19022 0.146646 3.50001 0.439939C2.8098 0.733232 2.20199 1.14006 1.67657 1.66042C1.15115 2.18077 0.740364 2.78273 0.444218 3.46629C0.148073 4.14985 0 4.8819 0 5.66244ZM1.22518 5.66244C1.22518 5.04747 1.34101 4.47153 1.57267 3.93461C1.80434 3.3977 2.12675 2.92464 2.53992 2.51545C2.95309 2.10627 3.43075 1.78696 3.97288 1.55752C4.51502 1.32809 5.09656 1.21338 5.71751 1.21338C6.33846 1.21338 6.92 1.32809 7.46214 1.55752C8.00428 1.78696 8.48073 2.10627 8.89149 2.51545C9.3023 2.92464 9.62472 3.3977 9.85877 3.93461C10.0928 4.47153 10.2098 5.04747 10.2098 5.66244C10.2098 6.27741 10.0928 6.85335 9.85877 7.39026C9.62472 7.92718 9.3023 8.39904 8.89149 8.80584C8.48073 9.21269 8.00428 9.53201 7.46214 9.7638C6.92 9.99559 6.33846 10.1115 5.71751 10.1115C5.09656 10.1115 4.51502 9.99559 3.97288 9.7638C3.43075 9.53201 2.95309 9.21269 2.53992 8.80584C2.12675 8.39904 1.80434 7.92718 1.57267 7.39026C1.34101 6.85335 1.22518 6.27741 1.22518 5.66244Z" fill="#E6F3F2"/>
</svg>
