<svg width="9" height="10" viewBox="0 0 9 10" fill="none" xmlns="http://www.w3.org/2000/svg">
<path id="Vector" d="M4.06791 -1.76968e-07C3.87372 -1.85456e-07 3.68277 0.0938497 3.49507 0.28155L0.203855 3.5631C0.0679186 3.69255 -5.07135e-05 3.86084 -5.07226e-05 4.06796C-5.0731e-05 4.26213 0.0695417 4.42718 0.208726 4.5631C0.347844 4.69903 0.514501 4.76699 0.708697 4.76699C0.922312 4.76699 1.09706 4.69256 1.23293 4.54369L2.42713 3.3301L3.41743 2.15534L3.33978 4.21359L3.33978 9.27187C3.33978 9.48542 3.40772 9.66016 3.54359 9.79609C3.67952 9.93203 3.8543 10 4.0679 10C4.27502 10 4.44816 9.93203 4.58732 9.79609C4.72649 9.66016 4.79607 9.48542 4.79607 9.27187L4.79607 4.21359L4.71839 2.16505L5.69898 3.3301L6.90287 4.54369C7.04526 4.69256 7.21678 4.76699 7.41742 4.76699C7.61807 4.76699 7.78474 4.69903 7.91742 4.56311C8.05011 4.42718 8.11645 4.26213 8.11645 4.06796C8.11645 3.85437 8.05173 3.68608 7.92228 3.5631L4.63102 0.28155C4.44332 0.0938498 4.25561 -1.68763e-07 4.06791 -1.76968e-07Z" fill="#ABADB8"/>
</svg>
