<svg width="20" height="20" viewBox="0 0 20 20" fill="#2e324e" xmlns="http://www.w3.org/2000/svg">
<g id="UI icon/sun/filled">
<path id="Oval" fill-rule="evenodd" clip-rule="evenodd" d="M10 15C12.7614 15 15 12.7614 15 10C15 7.23858 12.7614 5 10 5C7.23858 5 5 7.23858 5 10C5 12.7614 7.23858 15 10 15Z"/>
<g id="Vector">
<path fill-rule="evenodd" clip-rule="evenodd" d="M9.99597 1.25C10.4562 1.25 10.8293 1.6231 10.8293 2.08333V2.91667C10.8293 3.3769 10.4562 3.75 9.99597 3.75C9.53573 3.75 9.16264 3.3769 9.16264 2.91667V2.08333C9.16264 1.6231 9.53573 1.25 9.99597 1.25Z"/>
<path fill-rule="evenodd" clip-rule="evenodd" d="M9.99597 16.25C10.4562 16.25 10.8293 16.6231 10.8293 17.0833V17.914C10.8293 18.3742 10.4562 18.7473 9.99597 18.7473C9.53573 18.7473 9.16264 18.3742 9.16264 17.914V17.0833C9.16264 16.6231 9.53573 16.25 9.99597 16.25Z"/>
<path fill-rule="evenodd" clip-rule="evenodd" d="M1.24731 9.99866C1.24731 9.53842 1.62041 9.16532 2.08065 9.16532H2.91398C3.37422 9.16532 3.74731 9.53842 3.74731 9.99866C3.74731 10.4589 3.37422 10.832 2.91398 10.832H2.08065C1.62041 10.832 1.24731 10.4589 1.24731 9.99866Z"/>
<path fill-rule="evenodd" clip-rule="evenodd" d="M16.2473 9.99866C16.2473 9.53842 16.6204 9.16532 17.0806 9.16532H17.9113C18.3715 9.16532 18.7446 9.53842 18.7446 9.99866C18.7446 10.4589 18.3715 10.832 17.9113 10.832H17.0806C16.6204 10.832 16.2473 10.4589 16.2473 9.99866Z"/>
<path fill-rule="evenodd" clip-rule="evenodd" d="M3.80982 16.1849C3.48438 15.8595 3.48438 15.3318 3.80982 15.0064L4.39907 14.4171C4.72451 14.0917 5.25215 14.0917 5.57758 14.4171C5.90302 14.7426 5.90302 15.2702 5.57758 15.5956L4.98833 16.1849C4.66289 16.5103 4.13525 16.5103 3.80982 16.1849Z"/>
<path fill-rule="evenodd" clip-rule="evenodd" d="M14.4164 5.57829C14.091 5.25285 14.091 4.72521 14.4164 4.39977L15.0038 3.81242C15.3292 3.48698 15.8568 3.48698 16.1823 3.81242C16.5077 4.13785 16.5077 4.66549 16.1823 4.99093L15.5949 5.57829C15.2695 5.90372 14.7419 5.90372 14.4164 5.57829Z"/>
<path fill-rule="evenodd" clip-rule="evenodd" d="M3.80982 3.81242C4.13525 3.48698 4.66289 3.48698 4.98833 3.81242L5.57758 4.40167C5.90302 4.72711 5.90302 5.25475 5.57758 5.58018C5.25215 5.90562 4.72451 5.90562 4.39907 5.58018L3.80982 4.99093C3.48438 4.66549 3.48438 4.13785 3.80982 3.81242Z"/>
<path fill-rule="evenodd" clip-rule="evenodd" d="M14.4164 14.419C14.7419 14.0936 15.2695 14.0936 15.5949 14.419L16.1823 15.0064C16.5077 15.3318 16.5077 15.8595 16.1823 16.1849C15.8568 16.5103 15.3292 16.5103 15.0038 16.1849L14.4164 15.5975C14.091 15.2721 14.091 14.7445 14.4164 14.419Z"/>
</g>
</g>
</svg>
